<svg width="139" height="153" viewBox="0 0 139 153" fill="none" xmlns="http://www.w3.org/2000/svg">
<g filter="url(#filter0_d_20_256)">
<path d="M72.256 94.824L88 49.8H101.152L73.696 120.552L52.96 73.032L32.224 120.552L4.768 49.8H17.92L33.856 94.824L52.96 46.44L72.256 94.824ZM100.377 112.104C100.377 110.248 101.017 108.68 102.297 107.4C103.641 106.056 105.241 105.384 107.097 105.384C109.081 105.384 110.713 106.056 111.993 107.4C113.273 108.68 113.913 110.248 113.913 112.104C113.913 113.896 113.273 115.464 111.993 116.808C110.713 118.152 109.081 118.824 107.097 118.824C105.241 118.824 103.641 118.152 102.297 116.808C101.017 115.464 100.377 113.896 100.377 112.104Z" fill="black"/>
</g>
<g filter="url(#filter1_d_20_256)">
<path d="M102 49C102 76.062 21.5 8.5 53 81C88 9.5 4 76.062 4 49C4 21.938 25.938 0 53 0C80.062 0 102 21.938 102 49Z" fill="url(#paint0_linear_20_256)" shape-rendering="crispEdges"/>
</g>
<path d="M59.68 149.2C57.9867 149.2 56.6933 148.633 55.8 147.5C54.92 146.367 54.48 144.847 54.48 142.94V141.44C54.48 140.187 54.6667 139.093 55.04 138.16C55.4267 137.227 55.9933 136.5 56.74 135.98C57.4867 135.46 58.4 135.2 59.48 135.2C60.48 135.2 61.3067 135.4 61.96 135.8C62.6133 136.187 63.0867 136.7 63.38 137.34C63.6733 137.967 63.7667 138.653 63.66 139.4L61.94 139.82C62.0867 138.54 61.94 137.56 61.5 136.88C61.06 136.187 60.3867 135.84 59.48 135.84C58.4667 135.84 57.6933 136.2 57.16 136.92C56.64 137.64 56.38 138.813 56.38 140.44V143.94C56.38 145.58 56.66 146.76 57.22 147.48C57.78 148.2 58.6133 148.56 59.72 148.56C60.16 148.56 60.58 148.487 60.98 148.34C61.38 148.18 61.72 147.913 62 147.54C62.28 147.167 62.4533 146.647 62.52 145.98L63.76 146.3C63.4667 147.367 62.9467 148.12 62.2 148.56C61.4667 148.987 60.6267 149.2 59.68 149.2ZM70.4788 148.48V149H66.6787V148.48L67.7588 148.36C67.9054 148.347 68.0121 148.327 68.0788 148.3C68.1454 148.26 68.2054 148.18 68.2588 148.06C68.3254 147.927 68.4054 147.7 68.4988 147.38L72.3588 135.4H73.6188L77.5188 147.38C77.6121 147.7 77.6854 147.927 77.7387 148.06C77.8054 148.18 77.8721 148.26 77.9388 148.3C78.0054 148.327 78.1054 148.347 78.2388 148.36L79.3388 148.48V149H74.4788V148.48L75.5788 148.36C75.7921 148.333 75.9054 148.28 75.9188 148.2C75.9454 148.107 75.8854 147.833 75.7388 147.38L74.9188 144.82H70.0388L69.2188 147.38C69.0721 147.833 69.0054 148.107 69.0188 148.2C69.0454 148.28 69.1654 148.333 69.3788 148.36L70.4788 148.48ZM70.2388 144.18H74.7188L72.4788 137.22L70.2388 144.18ZM90.4973 135.94V135.4H94.3173V135.94L93.2173 136.04C93.004 136.067 92.8773 136.127 92.8373 136.22C92.7973 136.3 92.7773 136.567 92.7773 137.02V149H91.7973L84.5173 136.72V147.38C84.5173 147.833 84.5373 148.107 84.5773 148.2C84.6173 148.28 84.744 148.333 84.9573 148.36L86.0573 148.48V149H82.2373V148.48L83.3373 148.36C83.5507 148.333 83.6773 148.28 83.7173 148.2C83.7573 148.107 83.7773 147.833 83.7773 147.38V137.02C83.7773 136.567 83.7573 136.3 83.7173 136.22C83.6773 136.127 83.5507 136.067 83.3373 136.04L82.2373 135.94V135.4H85.6973L92.0373 146.12V137.02C92.0373 136.567 92.0173 136.3 91.9773 136.22C91.9373 136.127 91.8107 136.067 91.5973 136.04L90.4973 135.94ZM100.709 148.48V149H96.9092V148.48L97.9892 148.36C98.1359 148.347 98.2426 148.327 98.3092 148.3C98.3759 148.26 98.4359 148.18 98.4892 148.06C98.5559 147.927 98.6359 147.7 98.7292 147.38L102.589 135.4H103.849L107.749 147.38C107.843 147.7 107.916 147.927 107.969 148.06C108.036 148.18 108.103 148.26 108.169 148.3C108.236 148.327 108.336 148.347 108.469 148.36L109.569 148.48V149H104.709V148.48L105.809 148.36C106.023 148.333 106.136 148.28 106.149 148.2C106.176 148.107 106.116 147.833 105.969 147.38L105.149 144.82H100.269L99.4492 147.38C99.3026 147.833 99.2359 148.107 99.2492 148.2C99.2759 148.28 99.3959 148.333 99.6092 148.36L100.709 148.48ZM100.469 144.18H104.949L102.709 137.22L100.469 144.18ZM112.468 135.94V135.4H118.148C119.774 135.4 121.021 135.927 121.888 136.98C122.754 138.033 123.188 139.52 123.188 141.44V142.94C123.188 144.873 122.754 146.367 121.888 147.42C121.021 148.473 119.774 149 118.148 149H112.468V148.48L113.568 148.36C113.781 148.333 113.908 148.28 113.948 148.2C113.988 148.12 114.008 147.847 114.008 147.38V137.02C114.008 136.553 113.988 136.28 113.948 136.2C113.908 136.12 113.781 136.067 113.568 136.04L112.468 135.94ZM118.108 136.04H115.748V148.36H118.108C118.828 148.36 119.421 148.227 119.888 147.96C120.354 147.693 120.701 147.24 120.928 146.6C121.168 145.947 121.288 145.06 121.288 143.94V140.44C121.288 139.333 121.168 138.46 120.928 137.82C120.701 137.18 120.354 136.727 119.888 136.46C119.421 136.18 118.828 136.04 118.108 136.04ZM129.768 148.48V149H125.968V148.48L127.048 148.36C127.194 148.347 127.301 148.327 127.368 148.3C127.434 148.26 127.494 148.18 127.548 148.06C127.614 147.927 127.694 147.7 127.788 147.38L131.648 135.4H132.908L136.808 147.38C136.901 147.7 136.974 147.927 137.028 148.06C137.094 148.18 137.161 148.26 137.228 148.3C137.294 148.327 137.394 148.347 137.528 148.36L138.628 148.48V149H133.768V148.48L134.868 148.36C135.081 148.333 135.194 148.28 135.208 148.2C135.234 148.107 135.174 147.833 135.028 147.38L134.208 144.82H129.328L128.508 147.38C128.361 147.833 128.294 148.107 128.308 148.2C128.334 148.28 128.454 148.333 128.668 148.36L129.768 148.48ZM129.528 144.18H134.008L131.768 137.22L129.528 144.18Z" fill="black"/>
<defs>
<filter id="filter0_d_20_256" x="0.767944" y="46.44" width="117.145" height="82.112" filterUnits="userSpaceOnUse" color-interpolation-filters="sRGB">
<feFlood flood-opacity="0" result="BackgroundImageFix"/>
<feColorMatrix in="SourceAlpha" type="matrix" values="0 0 0 0 0 0 0 0 0 0 0 0 0 0 0 0 0 0 127 0" result="hardAlpha"/>
<feOffset dy="4"/>
<feGaussianBlur stdDeviation="2"/>
<feComposite in2="hardAlpha" operator="out"/>
<feColorMatrix type="matrix" values="0 0 0 0 0 0 0 0 0 0 0 0 0 0 0 0 0 0 0.25 0"/>
<feBlend mode="normal" in2="BackgroundImageFix" result="effect1_dropShadow_20_256"/>
<feBlend mode="normal" in="SourceGraphic" in2="effect1_dropShadow_20_256" result="shape"/>
</filter>
<filter id="filter1_d_20_256" x="0" y="0" width="106" height="89" filterUnits="userSpaceOnUse" color-interpolation-filters="sRGB">
<feFlood flood-opacity="0" result="BackgroundImageFix"/>
<feColorMatrix in="SourceAlpha" type="matrix" values="0 0 0 0 0 0 0 0 0 0 0 0 0 0 0 0 0 0 127 0" result="hardAlpha"/>
<feOffset dy="4"/>
<feGaussianBlur stdDeviation="2"/>
<feComposite in2="hardAlpha" operator="out"/>
<feColorMatrix type="matrix" values="0 0 0 0 0 0 0 0 0 0 0 0 0 0 0 0 0 0 0.25 0"/>
<feBlend mode="normal" in2="BackgroundImageFix" result="effect1_dropShadow_20_256"/>
<feBlend mode="normal" in="SourceGraphic" in2="effect1_dropShadow_20_256" result="shape"/>
</filter>
<linearGradient id="paint0_linear_20_256" x1="53" y1="0" x2="53" y2="98" gradientUnits="userSpaceOnUse">
<stop stop-color="#5C9D0A"/>
<stop offset="0.69" stop-color="#3CD0FF" stop-opacity="0.98"/>
</linearGradient>
</defs>
</svg>
